<?xml version="1.0" standalone="no"?>
<!DOCTYPE svg PUBLIC "-//W3C//DTD SVG 20010904//EN"
 "http://www.w3.org/TR/2001/REC-SVG-20010904/DTD/svg10.dtd">
<svg version="1.0" xmlns="http://www.w3.org/2000/svg"
 width="1354.000000pt" height="1354.000000pt" viewBox="0 0 1354.000000 1354.000000"
 preserveAspectRatio="xMidYMid meet">
<metadata>
Created by potrace 1.14, written by Peter Selinger 2001-2017
</metadata>
<g transform="translate(0.000000,1354.000000) scale(0.100000,-0.100000)"
fill="#000000" stroke="none">
<path d="M10 6751 l0 -5171 695 0 695 0 1 33 c0 17 0 1709 0 3760 l1 3727 23
-17 c13 -10 104 -79 202 -153 98 -74 180 -137 183 -140 3 -3 52 -42 110 -85
58 -44 110 -84 115 -88 6 -4 87 -66 180 -138 94 -71 208 -159 255 -194 47 -36
254 -194 460 -351 206 -157 472 -360 590 -450 722 -551 888 -678 910 -695 37
-29 382 -292 507 -386 59 -46 209 -160 333 -254 124 -95 308 -235 410 -312
102 -78 187 -143 190 -146 3 -3 39 -31 80 -62 84 -64 538 -409 704 -536 60
-46 114 -82 121 -79 10 3 312 232 405 306 19 15 94 72 165 126 72 54 211 161
310 237 99 76 191 146 205 157 50 37 528 402 635 485 61 46 196 149 300 229
105 80 195 149 200 153 6 5 66 51 135 103 69 52 127 97 130 100 3 3 50 39 105
80 54 41 107 82 116 90 9 8 39 31 66 50 26 19 50 37 53 40 3 3 61 48 130 100
69 52 166 126 216 165 50 38 106 81 124 95 19 14 86 66 151 115 64 50 176 135
249 190 72 55 141 108 153 117 12 10 83 64 157 121 74 56 164 125 200 153 36
27 133 101 215 164 83 63 227 173 320 245 94 71 188 143 210 159 22 16 47 36
55 43 8 8 98 77 200 154 102 77 192 146 201 153 16 13 395 302 569 435 52 40
102 78 110 85 15 12 248 189 375 286 33 25 62 47 65 50 3 3 52 41 110 85 58
43 108 83 112 89 3 5 6 400 6 878 l0 868 -23 -17 c-13 -10 -67 -52 -121 -93
-55 -41 -164 -125 -242 -185 -384 -294 -487 -373 -612 -467 -74 -56 -137 -105
-140 -108 -3 -3 -32 -25 -65 -49 -33 -25 -62 -47 -65 -51 -3 -3 -59 -46 -125
-95 -66 -50 -122 -92 -125 -95 -8 -8 -118 -93 -149 -115 -29 -20 -224 -169
-251 -192 -8 -7 -134 -103 -280 -214 -438 -335 -506 -386 -740 -566 -124 -95
-233 -178 -242 -185 -22 -17 -90 -69 -723 -553 -291 -223 -584 -447 -651 -498
-66 -50 -135 -103 -154 -117 -18 -14 -87 -67 -154 -118 -66 -51 -132 -101
-145 -110 -13 -9 -28 -22 -35 -27 -6 -6 -47 -37 -91 -70 -44 -32 -84 -64 -90
-70 -5 -5 -53 -42 -105 -81 -52 -39 -206 -156 -341 -260 -136 -104 -259 -198
-274 -209 -15 -11 -44 -33 -65 -50 -21 -16 -116 -90 -211 -162 -96 -73 -256
-196 -357 -272 l-183 -140 -127 97 c-70 53 -179 136 -242 184 -63 48 -119 91
-125 96 -5 4 -138 106 -295 226 -157 119 -298 228 -315 241 -16 13 -188 144
-381 292 -193 147 -366 279 -384 293 -319 244 -442 339 -466 357 -72 55 -782
597 -809 618 -16 13 -210 161 -430 329 -220 168 -413 316 -429 328 -61 47
-315 241 -406 310 -52 39 -97 74 -100 77 -3 3 -68 53 -145 111 -77 58 -142
108 -145 111 -3 3 -70 55 -150 114 -80 60 -147 112 -150 115 -7 7 -63 50 -190
146 -58 43 -112 84 -120 91 -19 16 -216 167 -880 673 -173 133 -322 246 -330
253 -8 7 -43 34 -77 60 l-63 48 0 -5170z"/>
<path d="M13250 8217 c-146 -111 -602 -461 -1015 -777 -412 -316 -795 -608
-850 -649 -55 -42 -102 -78 -105 -81 -3 -3 -50 -39 -105 -80 -55 -41 -102 -78
-105 -81 -3 -3 -32 -25 -65 -50 -33 -24 -66 -50 -75 -56 -21 -18 -498 -383
-590 -452 -41 -31 -82 -62 -90 -68 -8 -7 -127 -99 -265 -203 -137 -105 -261
-200 -275 -211 -23 -18 -88 -68 -473 -362 -78 -59 -149 -114 -159 -122 -9 -7
-61 -46 -115 -87 -54 -40 -100 -75 -103 -79 -5 -5 -852 -653 -1020 -779 -47
-36 -87 -67 -90 -70 -3 -4 -41 -33 -85 -66 -44 -32 -82 -61 -85 -64 -3 -3 -21
-17 -40 -30 -19 -13 -37 -27 -40 -30 -3 -4 -52 -42 -110 -85 -58 -44 -107 -81
-110 -84 -3 -4 -50 -40 -105 -81 -55 -41 -105 -79 -111 -85 -6 -5 -23 -19 -38
-30 -15 -11 -79 -60 -142 -108 l-115 -88 -257 198 c-141 109 -264 203 -272
210 -16 13 -276 213 -330 253 -18 14 -41 32 -51 40 -9 8 -47 38 -84 65 -36 28
-89 68 -118 91 -29 22 -140 108 -247 190 -107 83 -319 246 -470 362 -151 117
-335 258 -409 315 -73 56 -138 107 -145 112 -6 6 -27 22 -46 35 -19 13 -37 27
-40 30 -4 5 -84 67 -485 375 -49 38 -169 130 -265 204 -625 483 -780 601 -785
601 -3 0 -5 -384 -5 -853 l0 -852 128 -97 c103 -78 328 -249 816 -621 15 -12
92 -70 170 -130 77 -59 148 -113 156 -120 9 -6 51 -39 95 -71 44 -33 82 -62
85 -65 3 -3 57 -45 120 -93 116 -87 437 -330 455 -345 6 -5 48 -37 95 -73 266
-202 687 -523 700 -533 9 -7 42 -33 75 -57 33 -25 66 -51 75 -57 8 -7 104 -80
213 -163 108 -82 286 -218 395 -301 213 -162 227 -173 311 -236 31 -23 63 -47
71 -55 49 -42 28 -53 361 200 173 130 400 302 504 382 105 79 253 192 330 250
77 59 187 142 245 185 58 44 110 84 116 89 7 6 24 20 40 31 38 28 693 524
1564 1185 294 223 600 455 680 515 80 60 147 112 150 115 3 3 66 51 140 106
74 56 214 161 310 234 96 73 267 203 380 289 113 85 250 189 305 231 243 185
316 240 320 240 3 0 5 -920 5 -2045 l0 -2045 679 0 679 0 0 3420 c0 1881 -3
3420 -7 3420 -3 0 -125 -91 -271 -203z"/>
</g>
</svg>
